<?xml version="1.0" encoding="UTF-8" standalone="no"?>
<svg
   xmlns:dc="http://purl.org/dc/elements/1.1/"
   xmlns:cc="http://creativecommons.org/ns#"
   xmlns:rdf="http://www.w3.org/1999/02/22-rdf-syntax-ns#"
   xmlns:svg="http://www.w3.org/2000/svg"
   xmlns="http://www.w3.org/2000/svg"
   xmlns:xlink="http://www.w3.org/1999/xlink"
   xmlns:sodipodi="http://sodipodi.sourceforge.net/DTD/sodipodi-0.dtd"
   xmlns:inkscape="http://www.inkscape.org/namespaces/inkscape"
   inkscape:version="1.0.1 (3bc2e813f5, 2020-09-07, custom)"
   id="svg8"
   version="1.1"
   viewBox="0 0 25.4 25.400001"
   height="96"
   width="96"
   sodipodi:docname="github.svg">
  <defs
     id="defs2">
    <clipPath
       clipPathUnits="userSpaceOnUse"
       id="clipPath16">
      <path
         d="M 0,560 960,560 960,0 0,0 0,560 z"
         id="path18"
         inkscape:connector-curvature="0" />
    </clipPath>
    <linearGradient
       x1="112.49854"
       y1="6.1372099"
       x2="112.49853"
       y2="129.3468"
       id="path1082_2_"
       gradientUnits="userSpaceOnUse"
       gradientTransform="translate(287,-83)">
      <stop
         id="stop193"
         style="stop-color:#ffffff;stop-opacity:0"
         offset="0" />
      <stop
         id="stop195"
         style="stop-color:#ffffff;stop-opacity:0.27450982"
         offset="1" />
      <midPointStop
         offset="0"
         style="stop-color:#FFFFFF"
         id="midPointStop197" />
      <midPointStop
         offset="0.5"
         style="stop-color:#FFFFFF"
         id="midPointStop199" />
      <midPointStop
         offset="1"
         style="stop-color:#000000"
         id="midPointStop201" />
    </linearGradient>
    <linearGradient
       x1="541.33502"
       y1="104.50665"
       x2="606.91248"
       y2="303.14029"
       id="linearGradient2544"
       xlink:href="#path1082_2_"
       gradientUnits="userSpaceOnUse"
       gradientTransform="matrix(-0.3937741,0,0,0.393752,357.51969,122.00151)" />
    <linearGradient
       id="linearGradient3388">
      <stop
         id="stop3390"
         style="stop-color:#000000;stop-opacity:0"
         offset="0" />
      <stop
         id="stop3392"
         style="stop-color:#000000;stop-opacity:0.37113401"
         offset="1" />
    </linearGradient>
    <linearGradient
       x1="490.72305"
       y1="237.72447"
       x2="490.72305"
       y2="183.9644"
       id="linearGradient4416"
       xlink:href="#linearGradient3388"
       gradientUnits="userSpaceOnUse"
       gradientTransform="matrix(0.749107,0,0,0.749107,-35.459862,91.44108)" />
    <clipPath
       clipPathUnits="userSpaceOnUse"
       id="clipPath1551">
      <path
         d="M 0,551.986 H 530.973 V 0 H 0 Z"
         id="path1549" />
    </clipPath>
  </defs>
  <sodipodi:namedview
     units="px"
     showgrid="false"
     inkscape:document-rotation="0"
     inkscape:current-layer="layer1"
     inkscape:document-units="px"
     inkscape:cy="73.689253"
     inkscape:cx="47.837443"
     inkscape:zoom="3.959798"
     inkscape:pageshadow="2"
     inkscape:pageopacity="0"
     borderopacity="1.0"
     bordercolor="#666666"
     pagecolor="#ffffff"
     id="base"
     inkscape:window-width="2560"
     inkscape:window-height="1376"
     inkscape:window-x="0"
     inkscape:window-y="0"
     inkscape:window-maximized="1" />
  <metadata
     id="metadata5">
    <rdf:RDF>
      <cc:Work
         rdf:about="">
        <dc:format>image/svg+xml</dc:format>
        <dc:type
           rdf:resource="http://purl.org/dc/dcmitype/StillImage" />
        <dc:title />
      </cc:Work>
    </rdf:RDF>
  </metadata>
  <g
     id="layer1"
     inkscape:groupmode="layer"
     inkscape:label="Layer 1">
    <path
       d="M 12.69998,0.31363841 C 5.6868931,0.31363841 3.552732e-7,5.9992715 3.552732e-7,13.013621 c 0,5.610974 3.6389291447268,10.37147 8.6850205447268,12.050766 0.6347027,0.117561 0.8677235,-0.275502 0.8677235,-0.61094 0,-0.302631 -0.011804,-1.303269 -0.017229,-2.364475 C 6.0023725,22.857221 5.2568347,20.590539 5.2568347,20.590539 4.6791234,19.122811 3.8467274,18.732272 3.8467274,18.732272 c -1.152269,-0.788228 0.086858,-0.772035 0.086858,-0.772035 1.2753012,0.08959 1.9468039,1.308947 1.9468039,1.308947 1.1327155,1.941338 2.9710033,1.38003 3.6957178,1.055528 C 9.6903047,19.504096 10.019221,18.94363 10.382422,18.626488 7.5615814,18.30556 4.5962594,17.216384 4.5962594,12.350104 c 0,-1.386339 0.496117,-2.5194705 1.3085303,-3.4088561 -0.1318611,-0.319876 -0.5665694,-1.6115778 0.1232349,-3.3609066 0,0 1.066466,-0.3411172 3.4931897,1.3020067 1.0130457,-0.2813895 2.0994887,-0.4225052 3.1787837,-0.4275527 1.079295,0.00507 2.166578,0.1461632 3.181513,0.4275527 2.423994,-1.6431239 3.488987,-1.3020067 3.488987,-1.3020067 0.691277,1.7493288 0.256569,3.0410306 0.124708,3.3609066 0.814309,0.8893856 1.306843,2.0225171 1.306843,3.4088561 0,4.878056 -2.970997,5.951881 -5.798986,6.266289 0.455526,0.394114 0.861417,1.16699 0.861417,2.351856 0,1.699276 -0.01449,3.066899 -0.01449,3.485198 0,0.338172 0.228389,0.733969 0.872141,0.609468 5.043564,-1.68119 8.677867,-6.440002 8.677867,-12.049294 0,-7.0143495 -5.686052,-12.69998259 -12.699979,-12.69998259"
       style="fill:#000000;fill-opacity:1;fill-rule:evenodd;stroke:none;stroke-width:0.352778"
       id="path1559" />
    <path
       d="m 4.8102095,18.547875 c -0.027959,0.0633 -0.127235,0.08223 -0.2176701,0.0389 -0.092319,-0.04164 -0.1438495,-0.127656 -0.1139827,-0.190958 0.027363,-0.06477 0.1266031,-0.08286 0.2187193,-0.03954 0.09211,0.04143 0.1446901,0.128287 0.1129335,0.191589"
       style="fill:#000000;fill-opacity:1;fill-rule:nonzero;stroke:none;stroke-width:0.352778"
       id="path1563" />
    <path
       d="m 5.3246819,19.121696 c -0.060568,0.05615 -0.1791831,0.03008 -0.2593108,-0.05868 -0.083281,-0.08854 -0.098632,-0.207151 -0.037199,-0.263934 0.062464,-0.05615 0.1772873,-0.02986 0.26036,0.05867 0.083281,0.08959 0.099479,0.206941 0.036186,0.263934"
       style="fill:#000000;fill-opacity:1;fill-rule:nonzero;stroke:none;stroke-width:0.352778"
       id="path1567" />
    <path
       d="m 5.8254012,19.853037 c -0.077815,0.05426 -0.2052584,0.0036 -0.2839136,-0.10936 -0.077815,-0.113145 -0.077815,-0.248582 0.00179,-0.302841 0.078655,-0.05426 0.2042091,-0.0052 0.2839196,0.106625 0.0776,0.114828 0.0776,0.250265 -0.00179,0.305576"
       style="fill:#000000;fill-opacity:1;fill-rule:nonzero;stroke:none;stroke-width:0.352778"
       id="path1571" />
    <path
       d="M 6.5113603,20.55975 C 6.4417483,20.63651 6.2934816,20.6159 6.1849655,20.51096 6.0739217,20.408752 6.0430057,20.263429 6.1126175,20.186668 c 0.070667,-0.07697 0.2197745,-0.05531 0.3291312,0.04858 0.1102032,0.102209 0.1436409,0.248582 0.069612,0.324503"
       style="fill:#000000;fill-opacity:1;fill-rule:nonzero;stroke:none;stroke-width:0.352778"
       id="path1575" />
    <path
       d="m 7.4577391,20.970079 c -0.03094,0.09948 -0.1735018,0.14448 -0.3173514,0.102209 -0.1436409,-0.04354 -0.2376468,-0.159833 -0.2086266,-0.26036 0.029867,-0.100105 0.1732932,-0.147214 0.3181979,-0.101998 0.1434263,0.04332 0.2376409,0.158992 0.2077801,0.260149"
       style="fill:#000000;fill-opacity:1;fill-rule:nonzero;stroke:none;stroke-width:0.352778"
       id="path1579" />
    <path
       d="m 8.497158,21.046084 c 0.00358,0.104732 -0.1184002,0.191589 -0.2694034,0.193482 -0.1518379,0.0033 -0.2748702,-0.08139 -0.2765513,-0.184439 0,-0.105784 0.1194554,-0.191589 0.2710846,-0.194323 0.1509973,-0.0029 0.2748701,0.08139 0.2748701,0.18528"
       style="fill:#000000;fill-opacity:1;fill-rule:nonzero;stroke:none;stroke-width:0.352778"
       id="path1583" />
    <path
       d="m 9.4642707,20.881561 c 0.018063,0.101998 -0.086858,0.206941 -0.2368064,0.234912 -0.1474264,0.02713 -0.2839136,-0.03617 -0.3026325,-0.13733 -0.018302,-0.104732 0.088331,-0.209676 0.2357571,-0.236805 0.1501568,-0.02607 0.2845455,0.03533 0.3036818,0.139223"
       style="fill:#000000;fill-opacity:1;fill-rule:nonzero;stroke:none;stroke-width:0.352778"
       id="path1587" />
  </g>
</svg>
