<?xml version="1.0" encoding="UTF-8" standalone="no"?>
<svg
   xmlns:dc="http://purl.org/dc/elements/1.1/"
   xmlns:cc="http://creativecommons.org/ns#"
   xmlns:rdf="http://www.w3.org/1999/02/22-rdf-syntax-ns#"
   xmlns:svg="http://www.w3.org/2000/svg"
   xmlns="http://www.w3.org/2000/svg"
   xmlns:xlink="http://www.w3.org/1999/xlink"
   xmlns:sodipodi="http://sodipodi.sourceforge.net/DTD/sodipodi-0.dtd"
   xmlns:inkscape="http://www.inkscape.org/namespaces/inkscape"
   inkscape:version="1.0.1 (3bc2e813f5, 2020-09-07, custom)"
   id="svg8"
   version="1.1"
   viewBox="0 0 25.4 25.400001"
   height="96"
   width="96"
   sodipodi:docname="kde.svg">
  <defs
     id="defs2">
    <clipPath
       clipPathUnits="userSpaceOnUse"
       id="clipPath16">
      <path
         d="M 0,560 960,560 960,0 0,0 0,560 z"
         id="path18"
         inkscape:connector-curvature="0" />
    </clipPath>
    <linearGradient
       x1="112.49854"
       y1="6.1372099"
       x2="112.49853"
       y2="129.3468"
       id="path1082_2_"
       gradientUnits="userSpaceOnUse"
       gradientTransform="translate(287,-83)">
      <stop
         id="stop193"
         style="stop-color:#ffffff;stop-opacity:0"
         offset="0" />
      <stop
         id="stop195"
         style="stop-color:#ffffff;stop-opacity:0.27450982"
         offset="1" />
      <midPointStop
         offset="0"
         style="stop-color:#FFFFFF"
         id="midPointStop197" />
      <midPointStop
         offset="0.5"
         style="stop-color:#FFFFFF"
         id="midPointStop199" />
      <midPointStop
         offset="1"
         style="stop-color:#000000"
         id="midPointStop201" />
    </linearGradient>
    <linearGradient
       x1="541.33502"
       y1="104.50665"
       x2="606.91248"
       y2="303.14029"
       id="linearGradient2544"
       xlink:href="#path1082_2_"
       gradientUnits="userSpaceOnUse"
       gradientTransform="matrix(-0.3937741,0,0,0.393752,357.51969,122.00151)" />
    <linearGradient
       id="linearGradient3388">
      <stop
         id="stop3390"
         style="stop-color:#000000;stop-opacity:0"
         offset="0" />
      <stop
         id="stop3392"
         style="stop-color:#000000;stop-opacity:0.37113401"
         offset="1" />
    </linearGradient>
    <linearGradient
       x1="490.72305"
       y1="237.72447"
       x2="490.72305"
       y2="183.9644"
       id="linearGradient4416"
       xlink:href="#linearGradient3388"
       gradientUnits="userSpaceOnUse"
       gradientTransform="matrix(0.749107,0,0,0.749107,-35.459862,91.44108)" />
    <clipPath
       clipPathUnits="userSpaceOnUse"
       id="clipPath1551">
      <path
         d="M 0,551.986 H 530.973 V 0 H 0 Z"
         id="path1549" />
    </clipPath>
  </defs>
  <sodipodi:namedview
     units="px"
     showgrid="false"
     inkscape:document-rotation="0"
     inkscape:current-layer="layer1"
     inkscape:document-units="px"
     inkscape:cy="75.180338"
     inkscape:cx="81.217327"
     inkscape:zoom="3.959798"
     inkscape:pageshadow="2"
     inkscape:pageopacity="0"
     borderopacity="1.0"
     bordercolor="#666666"
     pagecolor="#ffffff"
     id="base"
     inkscape:window-width="2560"
     inkscape:window-height="1376"
     inkscape:window-x="0"
     inkscape:window-y="0"
     inkscape:window-maximized="1" />
  <metadata
     id="metadata5">
    <rdf:RDF>
      <cc:Work
         rdf:about="">
        <dc:format>image/svg+xml</dc:format>
        <dc:type
           rdf:resource="http://purl.org/dc/dcmitype/StillImage" />
        <dc:title />
      </cc:Work>
    </rdf:RDF>
  </metadata>
  <g
     id="layer1"
     inkscape:groupmode="layer"
     inkscape:label="Layer 1">
    <path
       d="M 14.690907,7.2999999e-7 10.466695,0.40438783 V 17.798434 l 4.179539,-0.629237 V 9.7531686 l 5.618113,8.2253534 4.404378,-1.39361 L 18.915907,8.6745327 24.713792,1.2135226 20.219674,0.18025923 14.646332,7.640959 Z M 5.1156387,4.2386441 c -0.047703,0.00502 -0.093778,0.026042 -0.1295953,0.061999 L 3.3281287,5.9582659 c -0.069712,0.069913 -0.082827,0.1783057 -0.031437,0.2629514 l 1.941072,3.1969362 C 4.8934867,9.996939 4.6175544,10.620987 4.4203435,11.279291 l -3.56354025,0.741228 c -0.09915,0.02054 -0.170595,0.108382 -0.170595,0.210125 v 2.34431 c 0,0.09916 0.06784,0.185015 0.163356,0.208103 l 3.45878035,0.845434 c 0.1844569,0.762431 0.4702638,1.485207 0.8480214,2.14951 l -2.0020422,3.052896 c -0.05585,0.08534 -0.044178,0.197716 0.027992,0.269581 L 4.8396403,22.7581 c 0.069712,0.06952 0.1785274,0.08312 0.2635443,0.03205 L 8.240418,20.884822 c 0.6162424,0.355599 1.2807926,0.635447 1.983191,0.825221 l 0.731981,3.519363 C 10.97618,25.329166 11.064338,25.4 11.165427,25.4 h 2.344603 c 0.09857,0 0.184582,-0.06731 0.208108,-0.16397 l 0.862161,-3.526618 c 0.724048,-0.195402 1.408823,-0.486648 2.040138,-0.858413 l 3.091578,2.027083 c 0.08501,0.05598 0.197435,0.04477 0.269589,-0.02735 l 1.657914,-1.657603 c 0.07013,-0.07011 0.08269,-0.178517 0.03116,-0.262941 l -1.128608,-1.859987 -0.365132,0.115463 c -0.05323,0.01683 -0.11127,-0.003 -0.142582,-0.04938 0,0 -0.719866,-1.053797 -1.649568,-2.414525 -1.111427,2.175151 -3.372575,3.665176 -5.983743,3.665176 -3.7098353,0 -6.7174667,-3.007743 -6.7174667,-6.71776 0,-2.729198 1.6278704,-5.0763546 3.964717,-6.1277872 V 5.8083595 C 9.2229886,5.9571484 8.8118194,6.136545 8.4213063,6.3492752 c -2.855e-4,-2.607e-4 -5.718e-4,-9.893e-4 -0.0017,-0.00198 L 5.2552742,4.2719054 C 5.2126722,4.2440604 5.1632592,4.2329464 5.1155827,4.2378504 Z"
       fill="#31363b"
       id="path2876"
       style="stroke-width:0.264583;fill:#000000" />
  </g>
</svg>
