<?xml version="1.0" encoding="UTF-8" standalone="no"?>
<svg
   xmlns:dc="http://purl.org/dc/elements/1.1/"
   xmlns:cc="http://creativecommons.org/ns#"
   xmlns:rdf="http://www.w3.org/1999/02/22-rdf-syntax-ns#"
   xmlns:svg="http://www.w3.org/2000/svg"
   xmlns="http://www.w3.org/2000/svg"
   xmlns:xlink="http://www.w3.org/1999/xlink"
   xmlns:sodipodi="http://sodipodi.sourceforge.net/DTD/sodipodi-0.dtd"
   xmlns:inkscape="http://www.inkscape.org/namespaces/inkscape"
   inkscape:version="1.0.1 (3bc2e813f5, 2020-09-07, custom)"
   id="svg8"
   version="1.1"
   viewBox="0 0 25.4 25.400001"
   height="96"
   width="96"
   sodipodi:docname="rust.svg">
  <defs
     id="defs2">
    <clipPath
       clipPathUnits="userSpaceOnUse"
       id="clipPath16">
      <path
         d="M 0,560 960,560 960,0 0,0 0,560 z"
         id="path18"
         inkscape:connector-curvature="0" />
    </clipPath>
    <linearGradient
       x1="112.49854"
       y1="6.1372099"
       x2="112.49853"
       y2="129.3468"
       id="path1082_2_"
       gradientUnits="userSpaceOnUse"
       gradientTransform="translate(287,-83)">
      <stop
         id="stop193"
         style="stop-color:#ffffff;stop-opacity:0"
         offset="0" />
      <stop
         id="stop195"
         style="stop-color:#ffffff;stop-opacity:0.27450982"
         offset="1" />
      <midPointStop
         offset="0"
         style="stop-color:#FFFFFF"
         id="midPointStop197" />
      <midPointStop
         offset="0.5"
         style="stop-color:#FFFFFF"
         id="midPointStop199" />
      <midPointStop
         offset="1"
         style="stop-color:#000000"
         id="midPointStop201" />
    </linearGradient>
    <linearGradient
       x1="541.33502"
       y1="104.50665"
       x2="606.91248"
       y2="303.14029"
       id="linearGradient2544"
       xlink:href="#path1082_2_"
       gradientUnits="userSpaceOnUse"
       gradientTransform="matrix(-0.3937741,0,0,0.393752,357.51969,122.00151)" />
    <linearGradient
       id="linearGradient3388">
      <stop
         id="stop3390"
         style="stop-color:#000000;stop-opacity:0"
         offset="0" />
      <stop
         id="stop3392"
         style="stop-color:#000000;stop-opacity:0.37113401"
         offset="1" />
    </linearGradient>
    <linearGradient
       x1="490.72305"
       y1="237.72447"
       x2="490.72305"
       y2="183.9644"
       id="linearGradient4416"
       xlink:href="#linearGradient3388"
       gradientUnits="userSpaceOnUse"
       gradientTransform="matrix(0.749107,0,0,0.749107,-35.459862,91.44108)" />
    <clipPath
       clipPathUnits="userSpaceOnUse"
       id="clipPath1551">
      <path
         d="M 0,551.986 H 530.973 V 0 H 0 Z"
         id="path1549" />
    </clipPath>
  </defs>
  <sodipodi:namedview
     units="px"
     showgrid="false"
     inkscape:document-rotation="0"
     inkscape:current-layer="layer1"
     inkscape:document-units="px"
     inkscape:cy="109.99513"
     inkscape:cx="116.27943"
     inkscape:zoom="1.979899"
     inkscape:pageshadow="2"
     inkscape:pageopacity="0"
     borderopacity="1.0"
     bordercolor="#666666"
     pagecolor="#ffffff"
     id="base"
     inkscape:window-width="2560"
     inkscape:window-height="1376"
     inkscape:window-x="0"
     inkscape:window-y="0"
     inkscape:window-maximized="1" />
  <metadata
     id="metadata5">
    <rdf:RDF>
      <cc:Work
         rdf:about="">
        <dc:format>image/svg+xml</dc:format>
        <dc:type
           rdf:resource="http://purl.org/dc/dcmitype/StillImage" />
        <dc:title />
      </cc:Work>
    </rdf:RDF>
  </metadata>
  <g
     id="layer1"
     inkscape:groupmode="layer"
     inkscape:label="Layer 1">
    <path
       id="path3"
       d="m 25.226239,12.388409 -1.066321,-0.660081 c -0.009,-0.103865 -0.01917,-0.207489 -0.03034,-0.310626 l 0.916347,-0.854708 c 0.09319,-0.08688 0.134928,-0.215496 0.10969,-0.33999 -0.02451,-0.124978 -0.112116,-0.2278729 -0.231271,-0.2722831 l -1.1714,-0.4380312 c -0.02936,-0.1014386 -0.06018,-0.2021494 -0.09173,-0.3023754 l 0.730699,-1.0148734 c 0.0745,-0.103138 0.08979,-0.2373382 0.04125,-0.3550361 C 24.384623,7.7231917 24.278578,7.6392256 24.153113,7.618598 L 22.917892,7.417662 C 22.869842,7.323988 22.819852,7.2317712 22.769374,7.1402825 L 23.288459,6.000915 C 23.341609,5.8849158 23.330679,5.7499871 23.259829,5.6446656 23.189209,5.5388587 23.06957,5.4769759 22.941922,5.4818297 l -1.253668,0.043683 C 21.623454,5.4444587 21.557452,5.3641324 21.49023,5.2852625 l 0.288057,-1.2211487 c 0.02912,-0.124008 -0.0075,-0.2538399 -0.0978,-0.3438729 -0.08955,-0.089791 -0.219623,-0.12692 -0.343631,-0.097799 L 20.11595,3.9102567 C 20.03684,3.8432807 19.956511,3.7770266 19.875214,3.7122319 l 0.04393,-1.2536676 c 0.0049,-0.1269213 -0.05703,-0.2475316 -0.162839,-0.3179079 -0.10605,-0.070862 -0.24025,-0.081539 -0.356007,-0.028879 L 18.261174,2.6311056 C 18.169194,2.5806286 18.076982,2.5306374 17.983794,2.4823447 L 17.782373,1.2468776 C 17.761993,1.1216565 17.678021,1.0153641 17.560566,0.9668287 17.443353,0.9180507 17.30891,0.9338247 17.205772,1.0080837 L 16.19017,1.7387832 C 16.09019,1.7069922 15.98972,1.6764152 15.88828,1.6472942 L 15.450249,0.4756513 C 15.405839,0.3562544 15.302945,0.2686481 15.177966,0.2438951 15.05323,0.2193851 14.924854,0.2608821 14.838219,0.353585 L 13.983511,1.2706602 C 13.880374,1.2592552 13.776508,1.2488192 13.672885,1.2403262 L 13.012804,0.1737621 C 12.946074,0.0657709 12.827885,5.5e-6 12.700722,5.5e-6 c -0.127162,0 -0.245346,0.065766 -0.311839,0.1737566 l -0.660081,1.0665641 c -0.103866,0.00849 -0.207731,0.018929 -0.310869,0.030334 L 10.562983,0.3535851 C 10.476343,0.2608821 10.347728,0.2193849 10.223236,0.2438952 10.098257,0.2688912 9.9953617,0.3562545 9.9509517,0.4756514 l -0.438031,1.1716432 c -0.101439,0.029121 -0.201908,0.059941 -0.302133,0.091489 L 8.1954287,1.008084 C 8.0922907,0.933582 7.9578487,0.917808 7.8403927,0.966829 7.7231797,1.015364 7.6389707,1.1216567 7.6185858,1.2468779 L 7.4171647,2.482345 c -0.09319,0.048292 -0.185405,0.098041 -0.27738,0.1487609 L 6.0006607,2.1117777 c -0.115757,-0.052904 -0.250686,-0.041983 -0.356007,0.028879 -0.105807,0.070376 -0.16769,0.1909865 -0.162836,0.3179065 l 0.04368,1.2536673 c -0.08105,0.064795 -0.16138,0.1310459 -0.240735,0.1980248 L 4.0638558,3.6224405 c -0.1240081,-0.028877 -0.254082,0.00801 -0.3438731,0.097799 -0.09028,0.090033 -0.1269199,0.219865 -0.0978,0.3438729 l 0.287573,1.2211487 c -0.06674,0.079113 -0.132745,0.1591961 -0.197539,0.2402502 l -1.253668,-0.043683 c -0.126434,-0.00365 -0.247288,0.057031 -0.317907,0.162836 -0.07086,0.1053214 -0.08154,0.2402502 -0.02888,0.3562493 l 0.519328,1.1393675 c -0.05047,0.09149 -0.100469,0.1837073 -0.148762,0.2773809 l -1.235225,0.200936 c -0.125463,0.020383 -0.23127,0.1043513 -0.28004905,0.2218068 -0.04854,0.1176979 -0.03276,0.2518981 0.04125,0.3550361 l 0.7307,1.0148734 c -0.03179,0.100226 -0.06261,0.2009368 -0.09173,0.3023754 L 0.47563075,9.9507209 c -0.118912,0.044412 -0.206518,0.1473051 -0.231271,0.2722831 -0.02475,0.124736 0.01674,0.253112 0.109689,0.33999 l 0.91659105,0.854708 c -0.0114,0.103137 -0.0216,0.207003 -0.03033,0.310626 l -1.06632205,0.660081 c -0.107991,0.06673 -0.173756,0.184677 -0.173756,0.312082 0,0.127406 0.06577,0.245345 0.173756,0.311839 l 1.06632095,0.660081 c 0.0087,0.103866 0.01893,0.207489 0.03034,0.310626 l -0.91658995,0.85495 c -0.09295,0.08664 -0.134442,0.215254 -0.109689,0.339748 0.02475,0.124978 0.112359,0.22763 0.23127,0.272283 l 1.17164395,0.438031 c 0.02912,0.101439 0.05994,0.20215 0.09173,0.302376 l -0.7307,1.015116 c -0.0742599,0.10338 -0.09003,0.237581 -0.0412499,0.354793 0.0487801,0.117699 0.1548281,0.201665 0.2802921,0.221807 l 1.234982,0.200936 c 0.04829,0.09367 0.0978,0.185891 0.148761,0.277865 l -0.519329,1.138882 c -0.05291,0.115757 -0.04198,0.250442 0.02888,0.356249 0.07086,0.10605 0.191472,0.167933 0.317907,0.162837 l 1.253182,-0.04393 c 0.06528,0.08154 0.131046,0.16138 0.198025,0.240735 l -0.287573,1.221392 c -0.02912,0.123765 0.0075,0.253111 0.0978,0.343145 0.08955,0.09052 0.219865,0.126677 0.343873,0.09756 L 5.2847708,21.49024 c 0.07935,0.06746 0.159681,0.132987 0.240735,0.197539 l -0.04368,1.25391 c -0.0049,0.12692 0.05703,0.247288 0.1628361,0.318149 0.105321,0.07062 0.2402499,0.0813 0.356007,0.02839 l 1.139124,-0.519086 c 0.09173,0.05096 0.183949,0.100468 0.27738,0.148762 l 0.201421,1.234739 c 0.02038,0.125706 0.104351,0.231998 0.221807,0.280291 0.117212,0.04878 0.251898,0.033 0.355036,-0.04101 l 1.014873,-0.731185 c 0.1002259,0.03179 0.200937,0.06285 0.302376,0.09197 l 0.438031,1.171158 c 0.04441,0.118912 0.1473051,0.207004 0.2722831,0.231271 0.124736,0.02524 0.253112,-0.0165 0.339748,-0.10969 l 0.85495,-0.91659 c 0.103137,0.01189 0.207003,0.02184 0.310869,0.03106 l 0.66008,1.066321 c 0.0665,0.107506 0.184677,0.173756 0.31184,0.173756 0.127163,0 0.245346,-0.06601 0.312082,-0.173756 l 0.660081,-1.066321 c 0.103866,-0.0092 0.207488,-0.01918 0.310626,-0.03106 l 0.854707,0.91659 c 0.08664,0.09319 0.215255,0.134928 0.339748,0.10969 0.124978,-0.02451 0.227873,-0.112359 0.272283,-0.231271 l 0.438032,-1.171158 c 0.101438,-0.02912 0.202149,-0.06018 0.302375,-0.09197 l 1.015116,0.731185 c 0.103138,0.07402 0.237581,0.08979 0.354793,0.04101 0.117456,-0.04829 0.201423,-0.154828 0.221807,-0.280291 l 0.201422,-1.234739 c 0.09319,-0.04829 0.185405,-0.09853 0.277379,-0.148762 l 1.139125,0.519086 c 0.115757,0.05291 0.250443,0.04223 0.356007,-0.02839 0.105807,-0.07086 0.167447,-0.190986 0.162836,-0.318149 l -0.04368,-1.25391 c 0.08105,-0.0648 0.16138,-0.130075 0.240493,-0.197539 l 1.220907,0.287572 c 0.124008,0.02912 0.254082,-0.007 0.34363,-0.09756 0.09028,-0.09003 0.12692,-0.21938 0.0978,-0.343145 l -0.287571,-1.221392 c 0.06698,-0.07935 0.132987,-0.159196 0.197538,-0.240735 l 1.253668,0.04393 c 0.126435,0.0051 0.247288,-0.05679 0.317907,-0.162837 0.07086,-0.105807 0.08178,-0.240492 0.02863,-0.356249 l -0.519086,-1.138882 c 0.05072,-0.09197 0.100468,-0.184192 0.148518,-0.277865 l 1.235225,-0.200936 c 0.125706,-0.02014 0.231513,-0.104108 0.280049,-0.221807 0.04854,-0.117212 0.03325,-0.251413 -0.04125,-0.354793 l -0.730698,-1.015116 c 0.03155,-0.100226 0.06237,-0.200937 0.09173,-0.302376 l 1.1714,-0.438031 c 0.119154,-0.04466 0.207003,-0.147305 0.231271,-0.272283 0.02524,-0.124736 -0.0165,-0.253112 -0.109689,-0.339748 l -0.916348,-0.85495 c 0.01116,-0.103138 0.02136,-0.207003 0.03034,-0.310626 l 1.066322,-0.660081 c 0.107991,-0.0665 0.173757,-0.184676 0.173757,-0.311839 0,-0.127163 -0.06553,-0.245346 -0.173515,-0.312082 z m -7.13688,8.845809 c -0.407211,-0.08785 -0.666147,-0.489237 -0.578784,-0.897662 0.08712,-0.407939 0.488266,-0.667603 0.895235,-0.579754 0.407212,0.08712 0.666632,0.489236 0.579269,0.896933 -0.08736,0.407697 -0.488751,0.667603 -0.89572,0.580483 z m -0.362316,-2.45055 c -0.371538,-0.0796 -0.737009,0.156768 -0.816607,0.529035 L 16.53186,21.07939 c -1.168246,0.530248 -2.465595,0.824858 -3.831865,0.824858 -1.397575,0 -2.7230763,-0.30917 -3.9121913,-0.861988 l -0.378333,-1.766686 c -0.0796,-0.371781 -0.44507,-0.608634 -0.816365,-0.528793 l -1.559683,0.334894 C 5.7439097,18.783668 5.4745387,18.466246 5.2270077,18.13111 h 7.5889863 c 0.08591,0 0.143179,-0.01553 0.143179,-0.09367 v -2.68449 c 0,-0.07814 -0.05727,-0.09367 -0.143179,-0.09367 h -2.219521 v -1.701649 h 2.400558 c 0.219137,0 1.171643,0.06261 1.476203,1.28012 0.09537,0.374449 0.304802,1.592444 0.447981,1.982426 0.142694,0.437303 0.723662,1.310939 1.34273,1.310939 h 3.781631 c 0.04295,0 0.08882,-0.0049 0.137113,-0.01359 -0.262334,0.356492 -0.550149,0.693813 -0.860047,1.009049 z M 7.2307897,21.197331 c -0.407212,0.08785 -0.808114,-0.171816 -0.895719,-0.579755 -0.08712,-0.408668 0.171814,-0.809812 0.579026,-0.897661 0.407211,-0.08712 0.8083561,0.172543 0.89572,0.580483 0.08712,0.407696 -0.172058,0.809569 -0.579027,0.896933 z M 4.3519157,9.5233674 c 0.168903,0.3812452 -0.0029,0.8280126 -0.383672,0.9966736 -0.38076,0.169145 -0.8263139,-0.0029 -0.9952159,-0.3844 -0.1689031,-0.3814879 0.0029,-0.8275279 0.3836709,-0.9966733 0.381003,-0.1689029 0.8263141,0.0029 0.995217,0.3843997 z m -0.884799,2.0974546 1.624721,-0.721963 c 0.347027,-0.1541 0.503796,-0.560826 0.349697,-0.9085816 L 5.1068827,9.2336115 h 1.316036 v 5.9319895 h -2.655125 c -0.230301,-0.80957 -0.353823,-1.664035 -0.353823,-2.547135 0,-0.337078 0.0182,-0.670273 0.05315,-0.997644 z M 10.596959,11.044708 V 9.2962221 h 3.133926 c 0.161866,0 1.143008,0.187104 1.143008,0.9207159 0,0.609118 -0.75254,0.827527 -1.371366,0.827527 h -2.905568 z m 11.389303,1.573758 c 0,0.231999 -0.0085,0.461571 -0.02548,0.689444 h -0.952749 c -0.09537,0 -0.133715,0.06261 -0.133715,0.156042 v 0.437545 c 0,1.02992 -0.580725,1.253911 -1.089618,1.31094 -0.484626,0.0546 -1.021912,-0.202878 -1.088163,-0.499428 -0.285873,-1.607976 -0.762248,-1.951364 -1.514545,-2.544708 0.933577,-0.592859 1.905012,-1.467466 1.905012,-2.6381388 0,-1.2641026 -0.866598,-2.060325 -1.457273,-2.4507916 C 16.800989,6.5331052 15.883428,6.4236578 15.635898,6.4236578 H 5.7824957 C 7.1186727,4.9324093 8.9295267,3.8760376 10.977718,3.491638 l 1.161451,1.2184798 c 0.262577,0.2749529 0.697453,0.2851452 0.972163,0.022328 l 1.299534,-1.2429902 c 2.723075,0.5069519 5.028504,2.2020485 6.357159,4.5276196 l -0.889653,2.0093628 c -0.153614,0.347756 0.0032,0.754482 0.34994,0.908582 l 1.712812,0.760791 c 0.02961,0.304074 0.04513,0.611303 0.04513,0.922657 z M 12.139655,2.4551657 c 0.300919,-0.2882999 0.778264,-0.2768941 1.066321,0.02451 0.287572,0.3021325 0.276651,0.7799628 -0.02499,1.06802 -0.300919,0.2883002 -0.778265,0.277137 -1.066322,-0.024751 -0.287329,-0.3016476 -0.276409,-0.7794776 0.02499,-1.0677776 z m 8.828578,7.1048462 c 0.168661,-0.3812453 0.614215,-0.5533033 0.994975,-0.3841573 0.380759,0.168903 0.552574,0.6154278 0.383671,0.9966734 -0.168659,0.381487 -0.614214,0.553545 -0.995216,0.384399 -0.380275,-0.168903 -0.55209,-0.6151851 -0.38343,-0.9969151 z"
       style="stroke-width:0.359434;fill:#000000" />
  </g>
</svg>
