<?xml version="1.0" encoding="UTF-8" standalone="no"?>
<svg
   xmlns:dc="http://purl.org/dc/elements/1.1/"
   xmlns:cc="http://creativecommons.org/ns#"
   xmlns:rdf="http://www.w3.org/1999/02/22-rdf-syntax-ns#"
   xmlns:svg="http://www.w3.org/2000/svg"
   xmlns="http://www.w3.org/2000/svg"
   xmlns:sodipodi="http://sodipodi.sourceforge.net/DTD/sodipodi-0.dtd"
   xmlns:inkscape="http://www.inkscape.org/namespaces/inkscape"
   inkscape:version="1.0.1 (3bc2e813f5, 2020-09-07, custom)"
   id="svg8"
   version="1.1"
   viewBox="0 0 25.4 25.400001"
   height="96"
   width="96"
   sodipodi:docname="alpine.svg">
  <defs
     id="defs2">
    <clipPath
       clipPathUnits="userSpaceOnUse"
       id="clipPath16">
      <path
         d="M 0,560 960,560 960,0 0,0 0,560 z"
         id="path18"
         inkscape:connector-curvature="0" />
    </clipPath>
  </defs>
  <sodipodi:namedview
     units="px"
     showgrid="false"
     inkscape:document-rotation="0"
     inkscape:current-layer="layer1"
     inkscape:document-units="px"
     inkscape:cy="54.300475"
     inkscape:cx="88.143884"
     inkscape:zoom="5.6"
     inkscape:pageshadow="2"
     inkscape:pageopacity="0"
     borderopacity="1.0"
     bordercolor="#666666"
     pagecolor="#ffffff"
     id="base"
     inkscape:window-width="2560"
     inkscape:window-height="1376"
     inkscape:window-x="0"
     inkscape:window-y="0"
     inkscape:window-maximized="1" />
  <metadata
     id="metadata5">
    <rdf:RDF>
      <cc:Work
         rdf:about="">
        <dc:format>image/svg+xml</dc:format>
        <dc:type
           rdf:resource="http://purl.org/dc/dcmitype/StillImage" />
        <dc:title />
      </cc:Work>
    </rdf:RDF>
  </metadata>
  <g
     id="layer1"
     inkscape:groupmode="layer"
     inkscape:label="Layer 1">
    <path
       id="path58"
       style="fill:#000000;fill-opacity:1;fill-rule:nonzero;stroke:none;stroke-width:0.330729"
       d="M 6.3491342,1.7004937 3.54842e-7,12.699866 6.3491342,23.699506 H 19.051133 L 25.400001,12.699866 19.051133,1.7004937 Z m 4.1976618,5.834455 2.851926,2.9412143 0.0075,0.0075 0.0091,0.0093 2.67e-4,-2.67e-4 1.674106,1.671442 8.26e-4,-8.25e-4 2.552074,2.4993 c -0.21084,0.146701 -0.409355,0.266781 -0.595972,0.364355 -0.186618,0.0974 -0.361081,0.172415 -0.523476,0.229219 -0.162394,0.05663 -0.312901,0.09519 -0.451244,0.119407 -0.138342,0.02406 -0.264723,0.03412 -0.379012,0.03412 -0.13715,0 -0.256556,-0.01384 -0.358223,-0.03465 -0.101497,-0.02064 -0.185658,-0.04825 -0.253209,-0.07623 -0.06755,-0.02815 -0.118192,-0.05671 -0.152992,-0.07889 -0.0348,-0.022 -0.05363,-0.03789 -0.05704,-0.04078 l -1.124247,-1.15623 -3.218145,-3.218145 -1.16236,1.114384 -3.2498629,3.249863 c -0.0034,0.0029 -0.02224,0.01887 -0.057039,0.04104 -0.0348,0.02217 -0.08544,0.05066 -0.1529908,0.07863 -0.067551,0.02815 -0.1515415,0.05586 -0.2532084,0.0765 -0.1014966,0.02081 -0.2205416,0.03438 -0.3576898,0.03438 -0.1142915,1e-6 -0.2405744,-0.0099 -0.3787464,-0.03412 C 4.7787248,15.341409 4.6283134,15.302953 4.4660892,15.246319 4.3036947,15.189515 4.1293265,15.114501 3.9428798,15.017099 3.7564331,14.919526 3.5581102,14.799446 3.3474405,14.652746 Z m 4.994868,0.831056 4.84641,4.8642663 1.462211,1.43236 c -0.21084,0.146701 -0.409621,0.266781 -0.596239,0.364355 -0.186617,0.0974 -0.361176,0.172415 -0.523741,0.229219 -0.162395,0.05663 -0.312731,0.09519 -0.451244,0.119407 -0.138343,0.02406 -0.264553,0.03412 -0.379014,0.03412 -0.137148,0 -0.256023,-0.01384 -0.35769,-0.03465 -0.101667,-0.02064 -0.186094,-0.04825 -0.253474,-0.07623 -0.06755,-0.02815 -0.118458,-0.05672 -0.153259,-0.07889 -0.03463,-0.022 -0.05337,-0.03789 -0.05677,-0.04078 l -1.30309,-1.291363 -2.234899,-2.23463 -0.352891,0.352892 -1.651985,-1.633861 z M 9.2277135,12.725721 v 2.676012 C 9.1139352,15.400186 8.9885147,15.388694 8.851365,15.363617 8.7143885,15.33837 8.5654373,15.299586 8.4049192,15.24261 8.2444012,15.185808 8.0721662,15.111177 7.8881076,15.014457 7.704049,14.917907 7.5082626,14.799117 7.3006639,14.654634 Z" />
  </g>
</svg>
