<?xml version="1.0" encoding="UTF-8" standalone="no"?>
<svg
   xmlns:dc="http://purl.org/dc/elements/1.1/"
   xmlns:cc="http://creativecommons.org/ns#"
   xmlns:rdf="http://www.w3.org/1999/02/22-rdf-syntax-ns#"
   xmlns:svg="http://www.w3.org/2000/svg"
   xmlns="http://www.w3.org/2000/svg"
   xmlns:xlink="http://www.w3.org/1999/xlink"
   xmlns:sodipodi="http://sodipodi.sourceforge.net/DTD/sodipodi-0.dtd"
   xmlns:inkscape="http://www.inkscape.org/namespaces/inkscape"
   inkscape:version="1.0.1 (3bc2e813f5, 2020-09-07, custom)"
   id="svg8"
   version="1.1"
   viewBox="0 0 25.4 25.400001"
   height="96"
   width="96"
   sodipodi:docname="debian.svg">
  <defs
     id="defs2">
    <clipPath
       clipPathUnits="userSpaceOnUse"
       id="clipPath16">
      <path
         d="M 0,560 960,560 960,0 0,0 0,560 z"
         id="path18"
         inkscape:connector-curvature="0" />
    </clipPath>
    <linearGradient
       x1="112.49854"
       y1="6.1372099"
       x2="112.49853"
       y2="129.3468"
       id="path1082_2_"
       gradientUnits="userSpaceOnUse"
       gradientTransform="translate(287,-83)">
      <stop
         id="stop193"
         style="stop-color:#ffffff;stop-opacity:0"
         offset="0" />
      <stop
         id="stop195"
         style="stop-color:#ffffff;stop-opacity:0.27450982"
         offset="1" />
      <midPointStop
         offset="0"
         style="stop-color:#FFFFFF"
         id="midPointStop197" />
      <midPointStop
         offset="0.5"
         style="stop-color:#FFFFFF"
         id="midPointStop199" />
      <midPointStop
         offset="1"
         style="stop-color:#000000"
         id="midPointStop201" />
    </linearGradient>
    <linearGradient
       x1="541.33502"
       y1="104.50665"
       x2="606.91248"
       y2="303.14029"
       id="linearGradient2544"
       xlink:href="#path1082_2_"
       gradientUnits="userSpaceOnUse"
       gradientTransform="matrix(-0.3937741,0,0,0.393752,357.51969,122.00151)" />
    <linearGradient
       id="linearGradient3388">
      <stop
         id="stop3390"
         style="stop-color:#000000;stop-opacity:0"
         offset="0" />
      <stop
         id="stop3392"
         style="stop-color:#000000;stop-opacity:0.37113401"
         offset="1" />
    </linearGradient>
    <linearGradient
       x1="490.72305"
       y1="237.72447"
       x2="490.72305"
       y2="183.9644"
       id="linearGradient4416"
       xlink:href="#linearGradient3388"
       gradientUnits="userSpaceOnUse"
       gradientTransform="matrix(0.749107,0,0,0.749107,-35.459862,91.44108)" />
  </defs>
  <sodipodi:namedview
     units="px"
     showgrid="false"
     inkscape:document-rotation="0"
     inkscape:current-layer="layer1"
     inkscape:document-units="px"
     inkscape:cy="68.250379"
     inkscape:cx="88.780418"
     inkscape:zoom="3.959798"
     inkscape:pageshadow="2"
     inkscape:pageopacity="0"
     borderopacity="1.0"
     bordercolor="#666666"
     pagecolor="#ffffff"
     id="base"
     inkscape:window-width="2560"
     inkscape:window-height="1376"
     inkscape:window-x="0"
     inkscape:window-y="0"
     inkscape:window-maximized="1" />
  <metadata
     id="metadata5">
    <rdf:RDF>
      <cc:Work
         rdf:about="">
        <dc:format>image/svg+xml</dc:format>
        <dc:type
           rdf:resource="http://purl.org/dc/dcmitype/StillImage" />
        <dc:title />
      </cc:Work>
    </rdf:RDF>
  </metadata>
  <g
     id="layer1"
     inkscape:groupmode="layer"
     inkscape:label="Layer 1">
    <path
       fill="#d70751"
       d="m 14.692259,13.420233 c -0.420817,0.0056 0.07915,0.216324 0.628691,0.301107 0.152385,-0.118865 0.289277,-0.238294 0.412085,-0.354905 -0.341667,0.08366 -0.689813,0.08563 -1.040776,0.05379"
       id="path1097"
       style="stroke-width:0.264578;fill:#000000" />
    <path
       fill="#d70751"
       d="m 16.950419,12.857172 c 0.251533,-0.346174 0.434055,-0.72474 0.498559,-1.116263 -0.05662,0.278854 -0.207311,0.519683 -0.3504,0.774315 -0.786708,0.495459 -0.07436,-0.294066 -5.63e-4,-0.594609 -0.845578,1.065563 -0.116613,0.638831 -0.147596,0.936557"
       id="path1099"
       style="stroke-width:0.264578;fill:#000000" />
    <path
       fill="#d70751"
       d="m 17.785011,10.687176 c 0.05126,-0.7579781 -0.149004,-0.517993 -0.216324,-0.22928 0.0783,0.04113 0.140555,0.534612 0.216324,0.22928"
       id="path1101"
       style="stroke-width:0.264578;fill:#000000" />
    <path
       fill="#d70751"
       d="m 13.095746,0.32758386 c 0.224773,0.0399973 0.485601,0.0709773 0.448139,0.12478045 0.246745,-0.0543588 0.302233,-0.10337333 -0.448139,-0.12478045"
       id="path1103"
       style="stroke-width:0.264578;fill:#000000" />
    <path
       fill="#d70751"
       d="m 13.544167,0.45236431 -0.158018,0.0329602 0.147314,-0.0135205 0.0107,-0.0194397"
       id="path1105"
       style="stroke-width:0.264578;fill:#000000" />
    <path
       fill="#d70751"
       d="m 20.549052,10.974481 c 0.02535,0.680518 -0.198578,1.0112 -0.4011,1.59595 l -0.364201,0.181114 c -0.297726,0.578553 0.02958,0.3673 -0.183649,0.82727 -0.465321,0.413211 -1.410047,1.292589 -1.712563,1.373148 -0.221111,-0.0048 0.149568,-0.260828 0.198016,-0.360822 -0.622213,0.427014 -0.499404,0.641084 -1.451171,0.901068 l -0.02761,-0.06225 c -2.346323,1.104152 -5.605824,-1.08359 -5.56301,-4.06818 -0.02478,0.189283 -0.07126,0.141962 -0.123091,0.218013 -0.121118,-1.53539 0.709249,-3.0775411 2.109719,-3.7082034 1.369768,-0.6777014 2.975576,-0.3999733 3.956075,0.515177 C 16.447916,7.6808991 15.37503,6.9324982 14.10441,7.0017893 c -1.245269,0.020281 -2.410544,0.8114954 -2.79925,1.6708748 -0.637704,0.4013817 -0.712065,1.5480659 -0.989794,1.7581929 -0.3743411,2.749113 0.703334,3.936358 2.526592,5.333729 0.28618,0.193227 0.08056,0.222802 0.118866,0.369835 -0.605593,-0.283361 -1.159922,-0.711502 -1.61623,-1.235692 0.242238,0.35406 0.503346,0.698263 0.84107,0.968667 -0.57151,-0.192945 -1.334559,-1.383851 -1.556798,-1.432298 0.984442,1.762699 3.993538,3.091343 5.570052,2.43195 -0.729528,0.02704 -1.655946,0.01493 -2.475046,-0.287868 -0.345047,-0.177171 -0.81234,-0.543626 -0.728684,-0.612072 2.150843,0.803045 4.372104,0.607847 6.232825,-0.883603 0.473771,-0.36899 0.99092,-0.996272 1.140487,-1.004722 -0.225055,0.338569 0.03859,0.162806 -0.134357,0.46166 0.470954,-0.760795 -0.205338,-0.309839 0.487292,-1.313716 l 0.255758,0.352089 c -0.09577,-0.63207 0.784454,-1.398779 0.694882,-2.397586 0.201958,-0.305333 0.225056,0.328992 0.01099,1.031481 0.297164,-0.779385 0.07859,-0.904729 0.154637,-1.548067 0.08196,0.216324 0.190974,0.445886 0.246463,0.674321 -0.19379,-0.75347 0.198015,-1.268366 0.295473,-1.7063648 -0.09634,-0.042251 -0.298853,0.3329359 -0.34561,-0.5565826 0.007,-0.3864532 0.107879,-0.2025218 0.146469,-0.2977267 -0.07549,-0.04366 -0.27463,-0.3399774 -0.395467,-0.9081086 0.08704,-0.1337939 0.234351,0.3461741 0.353779,0.3656095 C 22.06191,7.7842704 21.929804,7.4397863 21.924171,7.0930488 21.574898,6.3635199 21.800517,7.1905072 21.517719,6.7798302 21.145912,5.6210341 21.825867,6.510834 21.872062,5.9846719 22.434841,6.8001105 22.755665,8.0648151 22.903542,8.5884422 22.790874,7.9498932 22.609196,7.3310611 22.386957,6.7325094 22.558495,6.8048984 22.111201,5.4190757 22.609759,6.3367611 22.077682,4.3805533 20.334417,2.5525059 18.730299,1.695098 18.92606,1.8745237 19.173649,2.09986 19.085205,2.1353506 18.286948,1.6607347 18.427221,1.6232722 18.312862,1.4227226 17.663609,1.1582328 17.620231,1.4444087 17.190683,1.4232858 15.965412,0.77318786 15.729371,0.84219781 14.601841,0.43546367 l 0.05126,0.23998476 C 13.841606,0.4050436 13.707531,0.77741648 12.830687,0.6760116 12.777457,0.63460904 13.111796,0.52503544 13.38727,0.48532028 12.602534,0.58897041 12.639151,0.33040081 11.871315,0.51376658 12.060317,0.38109952 12.260866,0.29293623 12.462543,0.18026782 11.822868,0.21913662 10.934758,0.5526375 11.208824,0.24899884 10.165231,0.7148836 8.3115525,1.3686427 7.27134,2.3440702 L 7.2386672,2.1254932 C 6.7620789,2.6975678 5.1602139,3.8341119 5.0326165,4.5757526 L 4.9050191,4.6053284 C 4.6574299,5.0253004 4.4965954,5.5010434 4.2999892,5.9328457 3.9757855,6.4857666 3.8245283,6.1457893 3.8707216,6.2325441 3.2327357,7.5259791 2.9152922,8.6126673 2.6417894,9.504439 c 0.1949167,0.2915298 0.00479,1.755376 0.078302,2.926847 -0.3199793,5.786658 4.0611379,11.404594 8.8501156,12.701409 0.701925,0.251532 1.745516,0.242518 2.633345,0.267305 -1.047255,-0.299698 -1.182456,-0.15858 -2.203233,-0.514331 -0.736008,-0.34702 -0.897124,-0.742768 -1.41878,-1.195413 l 0.206466,0.364764 C 9.7655373,23.693073 10.193396,23.607162 9.361339,23.3438 L 9.5818883,23.056213 C 9.2503601,23.030863 8.7039177,22.497941 8.5546321,22.201904 l -0.3627925,0.01436 C 7.7563834,21.679403 7.5240042,21.291541 7.5411859,20.990997 l -0.1171749,0.209 C 7.291344,20.972126 5.8210186,19.183794 6.583785,19.600104 6.4421039,19.471098 6.2536663,19.389695 6.0494545,19.018171 L 6.204655,18.841 C 5.8382013,18.368637 5.5292077,17.763325 5.5528675,17.561648 5.7486296,17.825856 5.8843946,17.87543 6.0190333,17.920779 5.0920535,15.621213 5.0399442,17.794308 4.3383012,15.58009 L 4.4864593,15.56826 C 4.3729467,15.396159 4.3033736,15.210537 4.2121123,15.027732 l 0.064781,-0.643618 C 3.609895,13.613461 4.0904266,11.10405 4.1870408,9.728085 4.253238,9.1686856 4.7439058,8.5729506 5.1165565,7.6386466 L 4.8895291,7.5997756 C 5.3238663,6.842643 7.3688005,4.5580062 8.3163433,4.6751816 8.7751867,4.0988818 8.2250852,4.6729246 8.1352291,4.5281491 9.143331,3.4851199 9.4602112,3.7912967 10.140447,3.6034219 10.873639,3.1682395 9.510912,3.7735514 9.8584945,3.4375175 11.126861,3.113877 10.757026,2.7012284 12.411282,2.537014 c 0.174636,0.099148 -0.404761,0.1532292 -0.550104,0.281953 1.056267,-0.5171486 3.343158,-0.3991283 4.829257,0.2867416 1.722983,0.8058618 3.660037,3.18683 3.736652,5.4269627 l 0.08704,0.023379 c -0.04394,0.890645 0.136329,1.9207167 -0.176608,2.8665697 l 0.211536,-0.44814"
       id="path1107"
       style="stroke-width:0.264578;fill:#000000" />
    <path
       fill="#d70751"
       d="m 10.097917,13.99766 -0.05944,0.29491 c 0.276883,0.376031 0.496587,0.783328 0.849521,1.076267 -0.254067,-0.495461 -0.442506,-0.700236 -0.790088,-1.371177"
       id="path1109"
       style="stroke-width:0.264578;fill:#000000" />
    <path
       fill="#d70751"
       d="m 10.751676,13.97231 c -0.146468,-0.162243 -0.23266,-0.35716 -0.330118,-0.550949 0.09295,0.341103 0.283361,0.634324 0.459969,0.932895 L 10.751676,13.97231"
       id="path1111"
       style="stroke-width:0.264578;fill:#000000" />
    <path
       fill="#d70751"
       d="m 22.323864,11.456984 -0.06168,0.155483 c -0.113232,0.805016 -0.358568,1.601583 -0.733754,2.340407 0.414621,-0.779385 0.681926,-1.632004 0.79544,-2.49589"
       id="path1113"
       style="stroke-width:0.264578;fill:#000000" />
    <path
       fill="#d70751"
       d="M 13.179403,0.12562581 C 13.463609,0.02168823 13.878511,0.06844577 14.181026,6.23266e-8 13.78725,0.03296029 13.395444,0.05267681 13.00871,0.10196811 l 0.170693,0.0236662"
       id="path1115"
       style="stroke-width:0.264578;fill:#000000" />
    <path
       fill="#d70751"
       d="M 3.1882361,5.4385113 C 3.2538692,6.0452315 2.7319286,6.2809905 3.3037215,5.8804538 3.6107435,5.1892321 3.1842928,5.6897623 3.1882361,5.4385113"
       id="path1117"
       style="stroke-width:0.264578;fill:#000000" />
    <path
       fill="#d70751"
       d="M 2.5156047,8.2479018 C 2.6477086,7.8431401 2.6713695,7.6003393 2.7217882,7.365707 2.3575873,7.8315915 2.5539125,7.9310215 2.5156047,8.2479018"
       id="path1119"
       style="stroke-width:0.264578;fill:#000000" />
  </g>
</svg>
